<?xml version="1.0" encoding="utf-8"?><svg viewBox="0 0 470 470" xmlns="http://www.w3.org/2000/svg" xmlns:xlink="http://www.w3.org/1999/xlink"><style>:root>svg{display:none}:root>svg:target{display:block}</style><svg viewBox="0 0 30 30" id="arrow" xmlns="http://www.w3.org/2000/svg"><path d="M20.773 11.273H9.227c-.346 0-.54.366-.325.616l5.773 6.693a.44.44 0 00.65 0l5.773-6.693c.214-.25.021-.616-.325-.616z"/></svg><svg viewBox="0 0 470 470" id="logo" xmlns="http://www.w3.org/2000/svg"><path d="M360.526 230.86a123.907 123.907 0 00-6.904-4.157 117.062 117.062 0 01-23.444 38.932l66.143 42.851a7.502 7.502 0 012.219 10.37l18.337 11.879c-1.958-41.059-22.771-78.118-56.351-99.875z"/><path d="M398.538 318.859a7.498 7.498 0 01-10.373 2.217l-69.041-44.728a125.816 125.816 0 01-28.416 18.284 136.222 136.222 0 018.16 22.909c1.26.885 2.532 1.756 3.822 2.591 33.581 21.758 75.916 25.605 114.188 10.609-.001-.006-18.338-11.885-18.34-11.882zM345.924 184.367l-.001-108.08c-48.147 19.002-86.119 58.512-103.036 107.662 8.712 27.745 11.112 57.279 6.73 86.281a7.5 7.5 0 01-8.536 6.296c-.054-.008-.105-.023-.159-.032a186.286 186.286 0 01-3.634 15.355c53.804-1.106 108.636-41.128 108.636-107.482zM223.504 141.227a192.94 192.94 0 0111.499 21.896c9.404-21.017 22.562-40.369 38.666-56.737 12.439-12.643 26.696-23.515 42.185-32.298l-9.232-16.658c-7.116 13.174-21.052 22.146-37.046 22.146-14.312 0-26.971-7.189-34.575-18.139-7.604 10.95-20.263 18.139-34.575 18.139-15.994 0-29.929-8.972-37.045-22.146l-9.226 16.646c28.285 16.061 52.244 39.11 69.349 67.151z"/><path d="M280.786 45.002c-.03-.002-37.22-.002-37.22-.002 3.261 11.291 13.683 19.575 26.01 19.575s22.749-8.284 26.01-19.575c.001 0-14.768 0-14.8.002zM285.032 324.126a7.589 7.589 0 01-.208-.889 121.234 121.234 0 00-8.081-23.045c-10.938 3.628-22.444 5.815-34.243 6.469V424.04c0 4.143-3.357 7.5-7.5 7.5-.003 0-.003 21.85-.003 21.85 33.401-23.965 53.189-61.586 53.189-101.6 0-9.436-1.065-18.673-3.154-27.664zM268.047 30l-8.314-15H210.27l-8.313 15zM124.078 184.367c0 67.295 56.397 107.509 110.922 107.509.762 0 1.525-.011 2.289-.026a187.102 187.102 0 003.634-15.355c-4.008-.694-6.747-4.462-6.137-8.504 4.188-27.717 1.762-55.026-6.224-80.225a7.524 7.524 0 01-1.044-3.187c-14.536-43.019-45.389-79.558-87.168-100.951-.016-.009-.033-.015-.05-.024a179.186 179.186 0 00-16.222-7.329v108.092zM227.5 424.039V306.66c-11.799-.654-23.305-2.841-34.243-6.469a121.234 121.234 0 00-8.081 23.045c-.05.3-.122.596-.208.889a121.947 121.947 0 00-3.154 27.664c0 40.013 19.787 77.633 53.182 101.6v-21.851a7.498 7.498 0 01-7.496-7.499zM200.426 64.575c12.328 0 22.749-8.284 26.01-19.575H174.416c3.261 11.291 13.683 19.575 26.01 19.575zM171.132 317.542a136.2 136.2 0 018.16-22.91 125.857 125.857 0 01-28.414-18.283l-69.043 44.727a7.497 7.497 0 01-10.373-2.217c-.001-.002-18.34 11.878-18.34 11.878 38.273 15.001 80.606 11.152 114.189-10.604a123.92 123.92 0 003.821-2.591z"/><path d="M73.679 308.486l66.145-42.85a117.09 117.09 0 01-23.445-38.934 123.992 123.992 0 00-6.906 4.159c-33.581 21.756-54.394 58.816-56.351 99.876l18.339-11.88a7.501 7.501 0 012.218-10.371z"/><path d="M368.683 218.271a138.79 138.79 0 00-10.774-6.293c1.988-8.898 3.015-18.139 3.015-27.611l-.002-118.187c-.002-6.618-5.414-8.067-7.5-8.067-.793 0-1.581.126-2.334.372a193.075 193.075 0 00-21.91 8.701l-18.42-33.236-.031-.057a8.513 8.513 0 00-.644-.971 7.432 7.432 0 00-.496-.58c-.034-.036-.064-.074-.099-.108a7.709 7.709 0 00-.66-.591c-.056-.045-.115-.085-.172-.128a7.641 7.641 0 00-.589-.402c-.062-.038-.122-.076-.184-.112a7.441 7.441 0 00-1.666-.705c-.067-.019-.135-.035-.203-.052a7.437 7.437 0 00-.704-.144c-.079-.012-.157-.026-.237-.036a7.197 7.197 0 00-.922-.064h-18.955L270.711 3.864A7.498 7.498 0 00264.151 0h-58.3a7.5 7.5 0 00-6.56 3.864L184.808 30h-18.956c-.313 0-.618.025-.921.062-.08.01-.158.024-.237.036a7.437 7.437 0 00-.704.144c-.068.017-.136.033-.203.052a7.421 7.421 0 00-1.666.705c-.063.036-.123.074-.184.112-.203.125-.4.259-.589.402-.057.043-.116.084-.172.128a7.56 7.56 0 00-.66.591c-.034.035-.065.073-.099.108-.175.185-.34.378-.496.58-.048.063-.096.126-.142.19a7.305 7.305 0 00-.461.714 2.763 2.763 0 00-.072.123l-18.421 33.239a193.11 193.11 0 00-21.912-8.704 7.502 7.502 0 00-9.834 7.128v118.755c0 9.472 1.027 18.713 3.015 27.61a138.7 138.7 0 00-10.775 6.295c-39.182 25.385-62.859 69.253-63.34 117.347a7.5 7.5 0 004.503 6.95c18.711 8.156 38.427 12.187 57.929 12.187 23.416 0 46.514-5.828 67.153-17.299a139.522 139.522 0 00-.748 14.332c0 46.688 23.942 90.412 64.045 116.965 1.255.831 2.698 1.246 4.141 1.246s2.886-.415 4.141-1.246c40.103-26.553 64.045-70.277 64.045-116.965 0-4.826-.26-9.603-.748-14.333 20.641 11.473 43.735 17.299 67.154 17.299 19.499 0 39.221-4.031 57.929-12.187a7.5 7.5 0 004.503-6.95c-.484-48.091-24.162-91.959-63.343-117.345zm48.195 112.471c-38.272 14.996-80.607 11.148-114.188-10.609a125.064 125.064 0 01-3.822-2.591 136.19 136.19 0 00-8.16-22.909 125.85 125.85 0 0028.416-18.284l69.041 44.728a7.498 7.498 0 0010.373-2.217 7.502 7.502 0 00-2.217-10.373l-66.143-42.851a117.062 117.062 0 0023.444-38.932 123.907 123.907 0 016.904 4.157c33.58 21.756 54.393 58.815 56.352 99.881zM235 453.392c-33.399-23.969-53.186-61.589-53.186-101.603a121.96 121.96 0 013.154-27.664c.086-.293.158-.589.208-.889a121.234 121.234 0 018.081-23.045c10.938 3.628 22.444 5.815 34.243 6.469v117.379a7.5 7.5 0 007.497 7.5 7.5 7.5 0 007.503-7.5V306.66c11.799-.654 23.305-2.841 34.243-6.469a121.234 121.234 0 018.081 23.045c.05.3.122.596.208.889a121.945 121.945 0 013.154 27.663c0 40.016-19.789 77.637-53.186 101.604zM53.122 330.742c1.958-41.064 22.771-78.125 56.352-99.881a123.992 123.992 0 016.906-4.159 117.08 117.08 0 0023.445 38.934l-66.145 42.85a7.502 7.502 0 008.156 12.59l69.043-44.727a125.8 125.8 0 0028.414 18.283 136.2 136.2 0 00-8.16 22.91 122.678 122.678 0 01-3.82 2.591c-33.584 21.757-75.917 25.605-114.191 10.609zM259.733 15l8.314 15h-66.091l8.313-15h49.464zm9.843 49.575c-12.328 0-22.749-8.284-26.01-19.575h52.021c-3.262 11.291-13.683 19.575-26.011 19.575zM189.141 45h37.295c-3.261 11.291-13.683 19.575-26.01 19.575-12.327 0-22.748-8.284-26.009-19.575h14.724zm11.285 34.575c14.312 0 26.971-7.189 34.575-18.139 7.604 10.95 20.263 18.139 34.575 18.139 15.994 0 29.93-8.972 37.046-22.146l9.232 16.658c-15.489 8.783-29.746 19.655-42.185 32.298-16.104 16.368-29.262 35.721-38.666 56.737a193.025 193.025 0 00-11.499-21.896c-17.104-28.041-41.064-51.09-69.349-67.15l9.226-16.646c7.115 13.174 21.051 22.145 37.045 22.145zm-60.142 4.02c.032.019.049.024.066.033 41.779 21.393 72.632 57.932 87.168 100.951a7.524 7.524 0 001.044 3.187c7.985 25.198 10.411 52.508 6.224 80.225-.61 4.042 2.129 7.81 6.137 8.504.054.009.105.024.159.032a7.5 7.5 0 008.536-6.296c4.382-29.002 1.981-58.536-6.73-86.281 16.917-49.15 54.889-88.66 103.036-107.662l.001 108.08c0 66.354-54.832 106.376-108.635 107.482-.763.016-1.526.026-2.289.026-54.524 0-110.922-40.214-110.922-107.509V76.275a179.973 179.973 0 0116.205 7.32z"/></svg></svg>