<?xml version="1.0" encoding="iso-8859-1"?>
<!-- Generator: Adobe Illustrator 19.0.0, SVG Export Plug-In . SVG Version: 6.00 Build 0)  -->
<svg version="1.1" id="Capa_1" xmlns="http://www.w3.org/2000/svg" xmlns:xlink="http://www.w3.org/1999/xlink" x="0px" y="0px"
	 viewBox="0 0 470 470" style="enable-background:new 0 0 470 470;" xml:space="preserve">
<g>
	<path style="fill:#C4C4C4;" d="M360.526,230.86c-2.252-1.458-4.559-2.847-6.904-4.157c-5.197,14.359-13.095,27.527-23.444,38.932
		l66.143,42.851c3.475,2.252,4.468,6.894,2.219,10.37l18.337,11.879C414.919,289.676,394.106,252.617,360.526,230.86z"/>
	<path style="fill:#C3F2AA;" d="M398.538,318.859c-1.437,2.216-3.845,3.423-6.302,3.423c-1.397,0-2.811-0.39-4.071-1.206
		l-69.041-44.728c-8.635,7.372-18.192,13.503-28.416,18.284c3.424,7.442,6.141,15.09,8.16,22.909
		c1.26,0.885,2.532,1.756,3.822,2.591c33.581,21.758,75.916,25.605,114.188,10.609C416.877,330.735,398.54,318.856,398.538,318.859z
		"/>
	<path style="fill:#F53635;" d="M345.924,184.367c0-50.032,0-89.92-0.001-108.08c-48.147,19.002-86.119,58.512-103.036,107.662
		c8.712,27.745,11.112,57.279,6.73,86.281c-0.619,4.096-4.441,6.916-8.536,6.296c-0.054-0.008-0.105-0.023-0.159-0.032
		c-0.987,5.125-2.193,10.247-3.634,15.355C291.092,290.743,345.924,250.721,345.924,184.367z"/>
	<path style="fill:#F75E5D;" d="M223.504,141.227c4.316,7.075,8.152,14.391,11.499,21.896c9.404-21.017,22.562-40.369,38.666-56.737
		c12.439-12.643,26.696-23.515,42.185-32.298l-9.232-16.658c-7.116,13.174-21.052,22.146-37.046,22.146
		c-14.312,0-26.971-7.189-34.575-18.139c-7.604,10.95-20.263,18.139-34.575,18.139c-15.994,0-29.929-8.972-37.045-22.146
		l-9.226,16.646C182.44,90.137,206.399,113.186,223.504,141.227z"/>
	<path style="fill:#C40200;" d="M280.786,45.002C280.756,45,243.566,45,243.566,45c3.261,11.291,13.683,19.575,26.01,19.575
		s22.749-8.284,26.01-19.575C295.587,45,280.818,45,280.786,45.002z"/>
	<path style="fill:#C4C4C4;" d="M285.032,324.126c-0.086-0.293-0.158-0.589-0.208-0.889c-1.896-7.888-4.592-15.582-8.081-23.045
		c-10.938,3.628-22.444,5.815-34.243,6.469v117.379c0,4.143-3.357,7.5-7.5,7.5c-0.003,0-0.003,21.85-0.003,21.85
		c33.401-23.965,53.189-61.586,53.189-101.6C288.186,342.354,287.121,333.117,285.032,324.126z"/>
	<polygon style="fill:#C40200;" points="268.047,30 259.733,15 210.27,15 201.957,30 	"/>
	<path style="fill:#C40200;" d="M124.078,184.367c0,67.295,56.397,107.509,110.922,107.509c0.762,0,1.525-0.011,2.289-0.026
		c1.44-5.108,2.646-10.23,3.634-15.355c-4.008-0.694-6.747-4.462-6.137-8.504c4.188-27.717,1.762-55.026-6.224-80.225
		c-0.579-0.963-0.94-2.053-1.044-3.187c-14.536-43.019-45.389-79.558-87.168-100.951c-0.016-0.009-0.033-0.015-0.05-0.024
		c-5.253-2.689-10.652-5.144-16.222-7.329V184.367z"/>
	<path style="fill:#C3F2AA;" d="M227.5,424.039V306.66c-11.799-0.654-23.305-2.841-34.243-6.469
		c-3.489,7.463-6.185,15.157-8.081,23.045c-0.05,0.3-0.122,0.596-0.208,0.889c-2.089,8.991-3.154,18.228-3.154,27.664
		c0,40.013,19.787,77.633,53.182,101.6v-21.851C230.856,431.537,227.5,428.181,227.5,424.039z"/>
	<path style="fill:#F53635;" d="M200.426,64.575c12.328,0,22.749-8.284,26.01-19.575h-37.259c-0.036,0-14.761,0-14.761,0
		C177.677,56.291,188.099,64.575,200.426,64.575z"/>
	<path style="fill:#C4C4C4;" d="M171.132,317.542c2.019-7.82,4.736-15.468,8.16-22.91c-10.223-4.781-19.779-10.912-28.414-18.283
		l-69.043,44.727c-1.261,0.815-2.674,1.206-4.071,1.206c-2.458,0-4.865-1.207-6.302-3.423c-0.001-0.002-18.34,11.878-18.34,11.878
		c38.273,15.001,80.606,11.152,114.189-10.604C168.597,319.3,169.87,318.428,171.132,317.542z"/>
	<path style="fill:#C3F2AA;" d="M73.679,308.486l66.145-42.85c-10.349-11.406-18.247-24.574-23.445-38.934
		c-2.346,1.311-4.653,2.7-6.906,4.159c-33.581,21.756-54.394,58.816-56.351,99.876l18.339-11.88
		C69.21,315.381,70.204,310.738,73.679,308.486z"/>
	<path style="fill:#570100;" d="M368.683,218.271c-3.488-2.259-7.099-4.358-10.774-6.293c1.988-8.898,3.015-18.139,3.015-27.611
		L360.922,66.18c-0.002-6.618-5.414-8.067-7.5-8.067c-0.793,0-1.581,0.126-2.334,0.372c-7.482,2.45-14.799,5.365-21.91,8.701
		l-18.42-33.236c-0.01-0.019-0.021-0.038-0.031-0.057c-0.18-0.314-0.336-0.551-0.502-0.781c-0.047-0.064-0.094-0.127-0.142-0.19
		c-0.156-0.202-0.321-0.396-0.496-0.58c-0.034-0.036-0.064-0.074-0.099-0.108c-0.208-0.21-0.429-0.406-0.66-0.591
		c-0.056-0.045-0.115-0.085-0.172-0.128c-0.19-0.143-0.386-0.277-0.589-0.402c-0.062-0.038-0.122-0.076-0.184-0.112
		c-0.52-0.299-1.078-0.537-1.666-0.705c-0.067-0.019-0.135-0.035-0.203-0.052c-0.231-0.059-0.465-0.107-0.704-0.144
		c-0.079-0.012-0.157-0.026-0.237-0.036C304.77,30.025,304.464,30,304.151,30h-18.955L270.711,3.864
		C269.39,1.479,266.878,0,264.151,0h-58.3c-2.727,0-5.238,1.479-6.56,3.864L184.808,30h-18.956c-0.313,0-0.618,0.025-0.921,0.062
		c-0.08,0.01-0.158,0.024-0.237,0.036c-0.239,0.037-0.473,0.085-0.704,0.144c-0.068,0.017-0.136,0.033-0.203,0.052
		c-0.589,0.168-1.146,0.406-1.666,0.705c-0.063,0.036-0.123,0.074-0.184,0.112c-0.203,0.125-0.4,0.259-0.589,0.402
		c-0.057,0.043-0.116,0.084-0.172,0.128c-0.231,0.185-0.453,0.381-0.66,0.591c-0.034,0.035-0.065,0.073-0.099,0.108
		c-0.175,0.185-0.34,0.378-0.496,0.58c-0.048,0.063-0.096,0.126-0.142,0.19c-0.166,0.229-0.322,0.466-0.461,0.714
		c-0.051,0.085-0.062,0.104-0.072,0.123l-18.421,33.239c-7.091-3.327-14.402-6.244-21.912-8.704
		c-2.284-0.746-4.79-0.356-6.735,1.055c-1.946,1.411-3.099,3.669-3.099,6.073v118.755c0,9.472,1.027,18.713,3.015,27.61
		c-3.675,1.935-7.286,4.035-10.775,6.295c-39.182,25.385-62.859,69.253-63.34,117.347c-0.029,3.011,1.743,5.747,4.503,6.95
		c18.711,8.156,38.427,12.187,57.929,12.187c23.416,0,46.514-5.828,67.153-17.299c-0.488,4.729-0.748,9.506-0.748,14.332
		c0,46.688,23.942,90.412,64.045,116.965c1.255,0.831,2.698,1.246,4.141,1.246s2.886-0.415,4.141-1.246
		c40.103-26.553,64.045-70.277,64.045-116.965c0-4.826-0.26-9.603-0.748-14.333c20.641,11.473,43.735,17.299,67.154,17.299
		c19.499,0,39.221-4.031,57.929-12.187c2.76-1.203,4.532-3.939,4.503-6.95C431.542,287.525,407.864,243.657,368.683,218.271z
		 M416.878,330.742c-38.272,14.996-80.607,11.148-114.188-10.609c-1.289-0.835-2.562-1.707-3.822-2.591
		c-2.019-7.82-4.736-15.467-8.16-22.909c10.224-4.782,19.781-10.912,28.416-18.284l69.041,44.728
		c1.261,0.816,2.674,1.206,4.071,1.206c2.457,0,4.865-1.207,6.302-3.423c2.251-3.479,1.259-8.121-2.217-10.373l-66.143-42.851
		c10.349-11.405,18.247-24.573,23.444-38.932c2.345,1.31,4.652,2.699,6.904,4.157C394.106,252.617,414.919,289.676,416.878,330.742z
		 M235,453.392c-33.399-23.969-53.186-61.589-53.186-101.603c0-9.435,1.065-18.672,3.154-27.664
		c0.086-0.293,0.158-0.589,0.208-0.889c1.896-7.888,4.592-15.582,8.081-23.045c10.938,3.628,22.444,5.815,34.243,6.469v117.379
		c0,4.142,3.356,7.498,7.497,7.5c4.146,0,7.503-3.357,7.503-7.5V306.66c11.799-0.654,23.305-2.841,34.243-6.469
		c3.489,7.463,6.185,15.157,8.081,23.045c0.05,0.3,0.122,0.596,0.208,0.889c2.089,8.991,3.154,18.228,3.154,27.663
		C288.186,391.804,268.397,429.425,235,453.392z M53.122,330.742c1.958-41.064,22.771-78.125,56.352-99.881
		c2.253-1.459,4.56-2.848,6.906-4.159c5.198,14.36,13.096,27.529,23.445,38.934l-66.145,42.85
		c-3.475,2.251-4.468,6.895-2.218,10.371c1.438,2.218,3.845,3.425,6.303,3.425c1.397,0,2.811-0.391,4.071-1.206l69.043-44.727
		c8.635,7.372,18.19,13.502,28.414,18.283c-3.424,7.442-6.141,15.09-8.16,22.91c-1.261,0.886-2.534,1.758-3.82,2.591
		C133.729,341.89,91.396,345.738,53.122,330.742z M259.733,15l8.314,15h-66.091l8.313-15H259.733z M269.576,64.575
		c-12.328,0-22.749-8.284-26.01-19.575h37.191c0.061,0,14.83,0,14.83,0C292.325,56.291,281.904,64.575,269.576,64.575z M189.141,45
		c0.036,0,37.295,0,37.295,0c-3.261,11.291-13.683,19.575-26.01,19.575c-12.327,0-22.748-8.284-26.009-19.575H189.141z
		 M200.426,79.575c14.312,0,26.971-7.189,34.575-18.139c7.604,10.95,20.263,18.139,34.575,18.139
		c15.994,0,29.93-8.972,37.046-22.146l9.232,16.658c-15.489,8.783-29.746,19.655-42.185,32.298
		c-16.104,16.368-29.262,35.721-38.666,56.737c-3.347-7.505-7.183-14.82-11.499-21.896c-17.104-28.041-41.064-51.09-69.349-67.15
		l9.226-16.646C170.496,70.604,184.432,79.575,200.426,79.575z M140.284,83.595c0.032,0.019,0.049,0.024,0.066,0.033
		c41.779,21.393,72.632,57.932,87.168,100.951c0.104,1.134,0.465,2.224,1.044,3.187c7.985,25.198,10.411,52.508,6.224,80.225
		c-0.61,4.042,2.129,7.81,6.137,8.504c0.054,0.009,0.105,0.024,0.159,0.032c4.095,0.62,7.917-2.2,8.536-6.296
		c4.382-29.002,1.981-58.536-6.73-86.281c16.917-49.15,54.889-88.66,103.036-107.662c0.001,18.16,0.001,58.048,0.001,108.08
		c0,66.354-54.832,106.376-108.635,107.482c-0.763,0.016-1.526,0.026-2.289,0.026c-54.524,0-110.922-40.214-110.922-107.509V76.275
		C129.648,78.461,135.047,80.916,140.284,83.595z"/>
</g>
<g>
</g>
<g>
</g>
<g>
</g>
<g>
</g>
<g>
</g>
<g>
</g>
<g>
</g>
<g>
</g>
<g>
</g>
<g>
</g>
<g>
</g>
<g>
</g>
<g>
</g>
<g>
</g>
<g>
</g>
</svg>
